<?xml version="1.0" encoding="utf-8"?>
<!-- Generator: Adobe Illustrator 22.0.0, SVG Export Plug-In . SVG Version: 6.00 Build 0)  -->
<svg version="1.1" id="Layer_1" xmlns="http://www.w3.org/2000/svg" xmlns:xlink="http://www.w3.org/1999/xlink" x="0px" y="0px"
	 viewBox="0 0 63 63" style="enable-background:new 0 0 63 63;" xml:space="preserve">
<style type="text/css">
	.st0{opacity:0.85;enable-background:new    ;}
</style>
<title>Asset 13</title>
<path class="st0" d="M31.5,0C14.1,0,0,14.1,0,31.5S14.1,63,31.5,63S63,48.9,63,31.5C63,14.1,48.9,0,31.5,0z M31.5,60
	C15.8,60,3,47.2,3,31.5S15.8,3,31.5,3S60,15.8,60,31.5C60,47.2,47.2,60,31.5,60z"/>
<path d="M42.3,23l4.3-4.3c0.6-0.6,0.6-1.5,0.1-2.1s-1.5-0.6-2.1-0.1c0,0-0.1,0-0.1,0.1l-28,28c-0.6,0.6-0.6,1.5,0,2.1c0,0,0,0,0,0
	c0.3,0.3,0.7,0.4,1.1,0.4c0.4,0,0.8-0.2,1.1-0.4l4.9-4.9c2.5,1.2,5.2,1.8,8,1.8c7.6,0,14.3-4.7,18.7-12C48.2,28.2,45.5,25.2,42.3,23
	z M31.5,40.7c-1.9,0-3.7-0.6-5.2-1.7l2.2-2.2c2.9,1.7,6.5,0.7,8.2-2.1c1.1-1.9,1.1-4.2,0-6.1l2.2-2.2c2.9,4,2,9.7-2.1,12.6
	C35.3,40.1,33.4,40.7,31.5,40.7z"/>
<path d="M18.5,38.5l4.3-4.3c-0.2-0.8-0.4-1.7-0.4-2.5c0-5,4-9,9-9c0.9,0,1.7,0.1,2.5,0.4l2.6-2.6c-1.7-0.5-3.4-0.8-5.2-0.8
	c-7.6,0-14.3,4.7-18.7,12C14.3,34.2,16.3,36.5,18.5,38.5z"/>
</svg>
